<svg xmlns="http://www.w3.org/2000/svg" viewBox="0 0 55.99 54.31"><defs><style>.cls-1{fill:#f4f9e4;stroke:#262626;stroke-miterlimit:10;stroke-width:2px;}</style></defs><title>muerte</title><g id="Capa_2" data-name="Capa 2"><g id="texo"><path class="cls-1" d="M51.68,20.64V14.21h-3.3V7.61H45.07V4.3h-6.6V1H17.52V4.3H10.91V7.61H7.61l-.09,6.6H4.3v6.43H1V33.48H4.3v3.3H7.61V40.1h3.3V50h3.3v3.3H41.77V50h3.3V40.1h3.31V36.79h3.3v-3.3H55V20.64ZM21.92,36.26H12V33H7.92V23.23h3.3V19.8H24.44V33H21.92ZM25.25,50H22V46.7h3.3ZM31.3,39.56v3.31H24.69V36.26H31.3ZM35.16,50h-3.3V46.7h3.3ZM48.38,26.53V33H44.29v3.31H34.38V33H31.86V19.8H45.07v3.43h3.31Z"/></g></g></svg>