<svg xmlns="http://www.w3.org/2000/svg" viewBox="0 0 58.32 50.34"><defs><style>.cls-1{fill:#e23991;stroke:#262626;stroke-miterlimit:10;stroke-width:3px;}</style></defs><title>icon-heart</title><g id="Capa_2" data-name="Capa 2"><g id="texo"><polygon class="cls-1" points="53.09 10.22 52.39 10.22 52.36 10.22 52.36 5.91 48.26 5.88 48.26 1.5 43.97 1.5 43.95 1.5 39.73 1.5 39.66 1.5 35.43 1.5 35.43 5.83 31.36 5.83 31.32 10.22 27.01 10.22 27.05 5.83 22.66 5.83 22.66 1.52 18.37 1.52 18.36 1.52 14.14 1.52 14.06 1.52 9.83 1.52 9.83 5.83 5.61 5.91 5.61 10.22 1.5 10.22 1.5 23.14 5.81 23.14 5.81 27.45 10.12 27.45 10.12 31.76 14.42 31.76 14.42 36.06 18.7 36.06 18.7 40.23 23.01 40.23 23.01 42.84 23.01 44.53 27.32 44.53 27.32 48.84 31.62 48.84 31.62 44.53 35.66 44.53 35.66 42.84 35.66 40.23 39.73 40.23 39.73 36.06 43.97 36.06 43.97 31.76 48.26 31.76 48.26 27.47 52.39 27.45 52.38 23.14 52.39 23.14 53.09 23.14 56.82 23.14 56.82 18.83 56.82 14.53 56.82 10.22 53.09 10.22"/></g></g></svg>